<svg width="30" height="26" viewBox="0 0 30 26" fill="none" xmlns="http://www.w3.org/2000/svg">
<path d="M10.0432 9.54545L13.9091 6.81818H21.8182V9.54545H14.8036L10.9091 12.2727H1.36365V9.54545H10.0432ZM11.2923 16.4454L15.2809 14.9932L16.2136 17.5568L12.225 19.0077C12.4128 20.5046 12.0425 22.0182 11.185 23.2594C10.3275 24.5006 9.04279 25.3825 7.57629 25.7365C6.10978 26.0905 4.56426 25.8919 3.23493 25.1785C1.90559 24.4652 0.885613 23.2872 0.369808 21.8695C-0.145997 20.4518 -0.121475 18.8938 0.438689 17.493C0.998854 16.0922 2.0554 14.9469 3.40653 14.2757C4.75765 13.6046 6.30866 13.4547 7.76329 13.8547C9.21793 14.2547 10.4742 15.1765 11.2923 16.4441V16.4454ZM6.13638 23.1818C7.04052 23.1818 7.90764 22.8226 8.54697 22.1833C9.18629 21.544 9.54546 20.6769 9.54546 19.7727C9.54546 18.8686 9.18629 18.0015 8.54697 17.3621C7.90764 16.7228 7.04052 16.3636 6.13638 16.3636C5.23223 16.3636 4.36511 16.7228 3.72579 17.3621C3.08646 18.0015 2.72729 18.8686 2.72729 19.7727C2.72729 20.6769 3.08646 21.544 3.72579 22.1833C4.36511 22.8226 5.23223 23.1818 6.13638 23.1818V23.1818ZM23.8636 25.9091C23.0578 25.9091 22.2599 25.7504 21.5154 25.442C20.7709 25.1336 20.0944 24.6816 19.5246 24.1118C18.9548 23.542 18.5028 22.8655 18.1944 22.121C17.886 21.3765 17.7273 20.5786 17.7273 19.7727C17.7273 18.9669 17.886 18.1689 18.1944 17.4244C18.5028 16.6799 18.9548 16.0035 19.5246 15.4337C20.0944 14.8638 20.7709 14.4118 21.5154 14.1035C22.2599 13.7951 23.0578 13.6364 23.8636 13.6364C25.4911 13.6364 27.0519 14.2829 28.2027 15.4337C29.3535 16.5844 30 18.1453 30 19.7727C30 21.4002 29.3535 22.961 28.2027 24.1118C27.0519 25.2626 25.4911 25.9091 23.8636 25.9091V25.9091ZM23.8636 23.1818C24.7678 23.1818 25.6349 22.8226 26.2742 22.1833C26.9136 21.544 27.2727 20.6769 27.2727 19.7727C27.2727 18.8686 26.9136 18.0015 26.2742 17.3621C25.6349 16.7228 24.7678 16.3636 23.8636 16.3636C22.9595 16.3636 22.0924 16.7228 21.4531 17.3621C20.8137 18.0015 20.4546 18.8686 20.4546 19.7727C20.4546 20.6769 20.8137 21.544 21.4531 22.1833C22.0924 22.8226 22.9595 23.1818 23.8636 23.1818ZM4.09092 10.9091H12.2727L15.8182 8.54591L16.2 7.11954L18.8346 7.82591L16.2136 17.55L13.7291 16.3391L13.89 15.7391L10.9091 17.7273L9.54546 15H4.09092V10.9091ZM20.58 4.09091H25.9091V8.18181H22.0691L24.6873 15.3764L22.1236 16.3091L19.1673 8.18181H19.0909V7.97454L17.1818 2.72727H13.6364V0H19.0909L20.58 4.09091Z" fill="#878787"/>
</svg>
