<svg width="30" height="22" viewBox="0 0 30 22" fill="none" xmlns="http://www.w3.org/2000/svg">
<path d="M23.0893 7.5L22.8021 7.39714L20.37 2.83714C19.9132 1.9802 19.2321 1.26353 18.3994 0.763798C17.5668 0.264063 16.614 5.17719e-05 15.6429 4.46366e-09H9.51857C8.39394 -4.58916e-05 7.29782 0.353843 6.38554 1.01151C5.47326 1.66919 4.7911 2.59729 4.43571 3.66429L3.27643 7.14214C2.30519 7.55151 1.47628 8.23829 0.893481 9.11649C0.310682 9.99469 -0.000114978 11.0253 3.19078e-08 12.0793V14.4643C3.19078e-08 15.9857 0.906428 17.2929 2.20714 17.8821C2.37558 18.8472 2.86959 19.7255 3.60688 20.3706C4.34417 21.0157 5.28023 21.3888 6.25915 21.4276C7.23806 21.4665 8.20073 21.1687 8.98681 20.5841C9.77289 19.9994 10.3349 19.163 10.5793 18.2143H19.4207C19.6651 19.163 20.2271 19.9994 21.0132 20.5841C21.7993 21.1687 22.7619 21.4665 23.7409 21.4276C24.7198 21.3888 25.6558 21.0157 26.3931 20.3706C27.1304 19.7255 27.6244 18.8472 27.7929 17.8821C28.4506 17.5852 29.0087 17.1048 29.4002 16.4986C29.7917 15.8923 30 15.186 30 14.4643V13.7379C29.9998 12.632 29.6574 11.5532 29.0198 10.6497C28.3821 9.74617 27.4805 9.06212 26.4386 8.69143L23.2029 7.54071V7.5H23.0893ZM6.46714 4.34143C6.68046 3.70095 7.09002 3.14389 7.63774 2.74926C8.18545 2.35464 8.8435 2.14247 9.51857 2.14286H11.7857V7.5H5.415L6.46714 4.34143ZM20.4279 7.5H13.9286V2.14286H15.6429C16.2256 2.14265 16.7974 2.30085 17.2971 2.60055C17.7969 2.90024 18.2057 3.33015 18.48 3.84429L20.43 7.5H20.4279ZM4.28571 17.1429C4.28571 16.5745 4.51148 16.0295 4.91334 15.6276C5.31521 15.2258 5.86025 15 6.42857 15C6.99689 15 7.54194 15.2258 7.9438 15.6276C8.34566 16.0295 8.57143 16.5745 8.57143 17.1429C8.57143 17.7112 8.34566 18.2562 7.9438 18.6581C7.54194 19.06 6.99689 19.2857 6.42857 19.2857C5.86025 19.2857 5.31521 19.06 4.91334 18.6581C4.51148 18.2562 4.28571 17.7112 4.28571 17.1429ZM23.5714 15C24.1397 15 24.6848 15.2258 25.0867 15.6276C25.4885 16.0295 25.7143 16.5745 25.7143 17.1429C25.7143 17.7112 25.4885 18.2562 25.0867 18.6581C24.6848 19.06 24.1397 19.2857 23.5714 19.2857C23.0031 19.2857 22.4581 19.06 22.0562 18.6581C21.6543 18.2562 21.4286 17.7112 21.4286 17.1429C21.4286 16.5745 21.6543 16.0295 22.0562 15.6276C22.4581 15.2258 23.0031 15 23.5714 15V15Z" fill="#878787"/>
</svg>
