<svg width="49" height="19" viewBox="0 0 49 19" fill="none" xmlns="http://www.w3.org/2000/svg">
<path d="M27.772 7.155L26.404 3.051C26.2056 2.45348 25.8238 1.9337 25.3131 1.56551C24.8024 1.19732 24.1886 0.999442 23.559 1H14.441C13.8114 0.999442 13.1976 1.19732 12.6869 1.56551C12.1762 1.9337 11.7944 2.45348 11.596 3.051L10.228 7.155C9.86422 7.30722 9.55356 7.56357 9.33507 7.89185C9.11657 8.22012 9 8.60566 9 9V14C9 14.738 9.404 15.376 10 15.723V18C10 18.2652 10.1054 18.5196 10.2929 18.7071C10.4804 18.8946 10.7348 19 11 19H12C12.2652 19 12.5196 18.8946 12.7071 18.7071C12.8946 18.5196 13 18.2652 13 18V16H25V18C25 18.2652 25.1054 18.5196 25.2929 18.7071C25.4804 18.8946 25.7348 19 26 19H27C27.2652 19 27.5196 18.8946 27.7071 18.7071C27.8946 18.5196 28 18.2652 28 18V15.723C28.3034 15.549 28.5556 15.2981 28.7311 14.9956C28.9067 14.6932 28.9994 14.3497 29 14V9C29 8.60566 28.8834 8.22012 28.6649 7.89185C28.4464 7.56357 28.1358 7.30722 27.772 7.155ZM14.441 3H23.558C23.989 3 24.371 3.274 24.507 3.684L25.613 7H12.387L13.492 3.684C13.5583 3.4848 13.6857 3.31153 13.856 3.18876C14.0264 3.06599 14.231 2.99995 14.441 3V3ZM12.5 13C12.303 12.9999 12.1078 12.9611 11.9258 12.8856C11.7438 12.8101 11.5784 12.6995 11.4391 12.5602C11.2998 12.4208 11.1894 12.2553 11.114 12.0733C11.0387 11.8912 10.9999 11.696 11 11.499C11.0001 11.302 11.0389 11.1068 11.1144 10.9248C11.1899 10.7428 11.3005 10.5774 11.4398 10.4381C11.5792 10.2988 11.7447 10.1884 11.9267 10.113C12.1088 10.0377 12.304 9.99893 12.501 9.999C12.899 9.99913 13.2806 10.1573 13.5619 10.4388C13.8432 10.7203 14.0011 11.102 14.001 11.5C14.0009 11.898 13.8427 12.2796 13.5612 12.5609C13.2797 12.8422 12.898 13.0001 12.5 13V13ZM25.5 13C25.303 12.9999 25.1078 12.9611 24.9258 12.8856C24.7438 12.8101 24.5784 12.6995 24.4391 12.5602C24.2998 12.4208 24.1894 12.2553 24.114 12.0733C24.0387 11.8912 23.9999 11.696 24 11.499C24.0001 11.302 24.0389 11.1068 24.1144 10.9248C24.1899 10.7428 24.3005 10.5774 24.4398 10.4381C24.5792 10.2988 24.7447 10.1884 24.9267 10.113C25.1088 10.0377 25.304 9.99893 25.501 9.999C25.899 9.99913 26.2806 10.1573 26.5619 10.4388C26.8432 10.7203 27.0011 11.102 27.001 11.5C27.0009 11.898 26.8427 12.2796 26.5612 12.5609C26.2797 12.8422 25.898 13.0001 25.5 13V13Z" fill="black"/>
<path d="M37 1.6H35.8C35.6939 1.6 35.5922 1.64214 35.5172 1.71716C35.4421 1.79217 35.4 1.89391 35.4 2V6C35.4 6.10609 35.4421 6.20783 35.5172 6.28284C35.5922 6.35786 35.6939 6.4 35.8 6.4C35.9061 6.4 36.0078 6.35786 36.0828 6.28284C36.1579 6.20783 36.2 6.10609 36.2 6V4.8H37C37.4243 4.8 37.8313 4.63143 38.1314 4.33137C38.4314 4.03131 38.6 3.62435 38.6 3.2C38.6 2.77565 38.4314 2.36869 38.1314 2.06863C37.8313 1.76857 37.4243 1.6 37 1.6ZM37 4H36.2V2.4H37C37.2122 2.4 37.4157 2.48429 37.5657 2.63431C37.7157 2.78434 37.8 2.98783 37.8 3.2C37.8 3.41217 37.7157 3.61566 37.5657 3.76569C37.4157 3.91571 37.2122 4 37 4ZM39.8 0H34.2C33.8817 0 33.5765 0.126428 33.3515 0.351472C33.1264 0.576516 33 0.88174 33 1.2V6.8C33 7.11826 33.1264 7.42348 33.3515 7.64853C33.5765 7.87357 33.8817 8 34.2 8H39.8C40.1183 8 40.4235 7.87357 40.6485 7.64853C40.8736 7.42348 41 7.11826 41 6.8V1.2C41 0.88174 40.8736 0.576516 40.6485 0.351472C40.4235 0.126428 40.1183 0 39.8 0ZM40.2 6.8C40.2 6.90609 40.1579 7.00783 40.0828 7.08284C40.0078 7.15786 39.9061 7.2 39.8 7.2H34.2C34.0939 7.2 33.9922 7.15786 33.9172 7.08284C33.8421 7.00783 33.8 6.90609 33.8 6.8V1.2C33.8 1.09391 33.8421 0.992172 33.9172 0.917157C33.9922 0.842143 34.0939 0.8 34.2 0.8H39.8C39.9061 0.8 40.0078 0.842143 40.0828 0.917157C40.1579 0.992172 40.2 1.09391 40.2 1.2V6.8Z" fill="black"/>
<line x1="37.5" y1="8" x2="37.5" y2="19" stroke="black"/>
<line y1="18.8" x2="49" y2="18.8" stroke="#8A8A8A" stroke-width="0.4"/>
</svg>
