<svg width="30" height="28" viewBox="0 0 30 28" fill="none" xmlns="http://www.w3.org/2000/svg">
<path d="M29.4001 12.3286L22.5009 6.77922V2.99966C22.5376 2.24215 22.2724 1.501 21.7636 0.938692C21.2547 0.376385 20.5436 0.0388164 19.7862 0H2.68814C1.93608 0.0464341 1.23259 0.387305 0.730082 0.948766C0.227574 1.51023 -0.0334897 2.24707 0.00344734 2.99966V17.9979C-0.0104729 18.5935 0.153271 19.1798 0.473808 19.6819C0.794344 20.1841 1.25715 20.5795 1.80324 20.8176C1.52702 21.4933 1.41937 22.2262 1.48958 22.9528C1.55978 23.6794 1.80573 24.3781 2.2062 24.9884C2.60668 25.5988 3.14965 26.1025 3.78826 26.4562C4.42688 26.8099 5.14196 27.0029 5.87181 27.0185C6.60166 27.0342 7.32435 26.872 7.97753 26.546C8.63071 26.22 9.19476 25.74 9.62102 25.1473C10.0473 24.5547 10.3229 23.8672 10.4242 23.1442C10.5255 22.4213 10.4493 21.6845 10.2023 20.9976H19.7412C19.4945 21.6772 19.4152 22.4063 19.5101 23.123C19.605 23.8398 19.8711 24.5231 20.2861 25.1151C20.7011 25.7072 21.2526 26.1906 21.894 26.5243C22.5353 26.858 23.2477 27.0322 23.9707 27.0322C24.6937 27.0322 25.406 26.858 26.0474 26.5243C26.6888 26.1906 27.2403 25.7072 27.6553 25.1151C28.0703 24.5231 28.3364 23.8398 28.4313 23.123C28.5261 22.4063 28.4469 21.6772 28.2002 20.9976H28.5002C28.898 20.9976 29.2794 20.8396 29.5607 20.5583C29.842 20.277 30 19.8955 30 19.4978V13.4984C29.9954 13.2707 29.939 13.047 29.835 12.8443C29.7311 12.6416 29.5823 12.4652 29.4001 12.3286V12.3286ZM27.0003 14.2184V17.9979H22.5009V10.6188L27.0003 14.2184ZM7.50259 22.4974C7.50259 22.7941 7.41462 23.084 7.24982 23.3307C7.08502 23.5773 6.85077 23.7696 6.57672 23.8831C6.30266 23.9966 6.00109 24.0263 5.71016 23.9684C5.41922 23.9106 5.15197 23.7677 4.94222 23.558C4.73247 23.3482 4.58962 23.081 4.53175 22.79C4.47388 22.4991 4.50358 22.1975 4.6171 21.9235C4.73062 21.6494 4.92285 21.4152 5.1695 21.2504C5.41614 21.0855 5.70612 20.9976 6.00276 20.9976C6.40054 20.9976 6.78202 21.1556 7.0633 21.4369C7.34457 21.7181 7.50259 22.0996 7.50259 22.4974ZM25.5005 22.4974C25.5005 22.7941 25.4126 23.084 25.2478 23.3307C25.0829 23.5773 24.8487 23.7696 24.5746 23.8831C24.3006 23.9966 23.999 24.0263 23.7081 23.9684C23.4171 23.9106 23.1499 23.7677 22.9401 23.558C22.7304 23.3482 22.5876 23.081 22.5297 22.79C22.4718 22.4991 22.5015 22.1975 22.615 21.9235C22.7285 21.6494 22.9208 21.4152 23.1674 21.2504C23.4141 21.0855 23.7041 20.9976 24.0007 20.9976C24.3985 20.9976 24.78 21.1556 25.0612 21.4369C25.3425 21.7181 25.5005 22.0996 25.5005 22.4974Z" fill="#000"/>
</svg>
